<svg width="58" height="80" viewBox="0 0 58 80" fill="none" xmlns="http://www.w3.org/2000/svg">
<path d="M21.75 86.7139H22.75V85.7139V20.4889V18.6368L21.2014 19.6528L10.7229 26.528L10.7194 26.5304C7.84155 28.436 3.96279 27.6466 2.04495 24.8378C0.141867 22.0225 0.908926 18.2084 3.77743 16.3247L3.77751 16.3246L25.5272 2.03873C27.4512 0.775987 29.9211 0.654126 31.9503 1.73034L31.9528 1.73169C32.9513 2.25753 33.7841 3.03948 34.364 3.99248C34.9438 4.94526 35.2496 6.03396 35.25 7.1426C35.25 7.14271 35.25 7.14281 35.25 7.14292V85.7161V86.7161H36.25H50.75H50.7506C54.222 86.7142 57 89.4721 57 92.8569C57 96.235 54.2151 99 50.75 99H7.25C3.78486 99 1 96.235 1 92.8569C1 89.4789 3.78486 86.7139 7.25 86.7139H21.75Z" stroke="white" stroke-width="2"/>
</svg>
