<svg width="72" height="80" viewBox="0 0 72 80" fill="none" xmlns="http://www.w3.org/2000/svg">
<path d="M2.9141 88.3965L2.91394 88.3967C2.01955 89.2463 1.40223 90.3419 1.14051 91.542C0.87881 92.742 0.984414 93.9925 1.44395 95.1326C1.90394 96.2732 2.69742 97.2518 3.72309 97.9414C4.74884 98.6312 5.9595 99.0001 7.19911 99H64.7999C68.2291 99 71 96.237 71 92.8428C71 89.4432 68.2371 86.6854 64.7996 86.6744C64.7988 86.6744 64.7979 86.6744 64.7971 86.6744L25.1499 86.6744H22.6457L24.461 84.9494L55.0594 55.8752C67.1982 44.2748 68.2016 25.1371 57.339 12.3335L57.3387 12.3331C51.665 5.63938 43.3582 1.52253 34.5574 1.0479L34.5566 1.04786C25.714 0.563987 17.046 3.77053 10.7964 9.69479L10.7876 9.70309L10.7787 9.71117L3.02797 16.7112L2.9141 88.3965ZM2.9141 88.3965L46.4747 46.9965L46.4769 46.9943C53.9161 39.88 54.5288 28.1347 47.8564 20.2617L47.8562 20.2615C44.3226 16.094 39.352 13.635 33.8792 13.3384L33.8757 13.3382C28.4495 13.0631 23.2127 14.9611 19.2394 18.7248M2.9141 88.3965L19.2394 18.7248M19.2394 18.7248L11.371 25.8291L11.3701 25.8299C8.83673 28.123 4.91003 27.9277 2.60911 25.4108L2.60786 25.4095C0.311571 22.9069 0.495635 19.0031 3.02731 16.7118L19.2394 18.7248Z" stroke="white" stroke-width="2"/>
</svg>
