<svg xmlns="http://www.w3.org/2000/svg" viewBox="0 0 310.59 90.29"><defs><style>.cls-1{fill:#e62355;}.cls-2,.cls-3{fill:#145da8;}.cls-2{fill-rule:evenodd;}</style></defs><title>Ресурс 64x</title><g id="Слой_2" data-name="Слой 2"><g id="Слой_1-2" data-name="Слой 1"><path class="cls-1" d="M45.65,14.56c7.55-2.78,16.67-1.65,23,3.46,9.77,7.9,9.79,21.17,3.46,31.22A37.52,37.52,0,0,1,67.53,55h-.12c-3.59-.42-9.62,2.15-13,3.46a60.26,60.26,0,0,1-8,2.73,6.51,6.51,0,0,1-1,.14c1-.52,2.08-1.08,3.11-1.67A45,45,0,0,0,64.42,45C73.56,30.54,60,14.83,38.94,29c-2-12.37-8-16.2-14-16.14-19.36.2-18.57,34-8,46.66C1.64,50.07-5.39,16.7,12.24,4A20.69,20.69,0,0,1,27.39.2c8,1.1,15.12,7,18.26,14.36Z"/><path class="cls-2" d="M0,90.29C.49,67.93,14.36,61,33.08,62.43c5.58.42,9.94,2.23,13.88,1.34,6.2-1.4,16-6.62,20.15-6.14,6,.7,2.25,4.46,2.25,4.46s-11,7.28-12.31,7.93-6.87,2.36-8.22,2.16c1.2.6,5.15-.14,8.89-1.35a17.35,17.35,0,0,0,3.49-2.1c5.36-3.5,9.29-5,10.67-7.44a2.56,2.56,0,0,0-1.17-3.67s3.64-3.6,7-11.79c2.1-5.16,6.35-5.83,7.5-4.28.51.69-1.37,4.4-1.92,5.75C80.91,53.14,78,63.23,74.8,66.49,70.71,70.63,61.58,80.78,53,83.14,29.26,89.71,20.26,74,0,90.29Z"/><path class="cls-1" d="M29.58,34.66A11.94,11.94,0,0,1,41,36.38c10,8.12-.2,22.71-11.95,21.73.65-.33,1.29-.67,1.93-1a22.37,22.37,0,0,0,7.93-7.26c4.55-7.21-2.2-15-12.68-8-1-6.15-4-8.05-7-8-9.63.1-9.24,16.9-4,23.22C7.68,52.32,4.19,35.72,13,29.4a10.25,10.25,0,0,1,7.54-1.88,11.91,11.91,0,0,1,9.08,7.14Z"/><path class="cls-1" d="M101,58.86V54.63a10.92,10.92,0,0,1,.45-3l7.42-25.52c.6-2.24,1.75-2.84,4.74-2.84H119c3,0,4.14.5,4.79,2.84l7.33,25.52a10.08,10.08,0,0,1,.55,3v4.23h-4.09c-2.39,0-2.89-.49-3.44-2.54L122.67,51H109.81l-1.39,5.28c-.6,2-1,2.54-3.34,2.54Zm14.6-29.26-4.08,15.16H121L117,29.6Z"/><path class="cls-1" d="M155.37,58.86h-5c-6,0-9.43-.64-11.67-2.79s-2.84-5.18-2.84-10.62.65-8.42,2.84-10.57S144.4,32,150.39,32h5v4.39c0,1.74-.55,2.24-2.29,2.24h-2.69c-3.19,0-5.14.35-5.89,1s-1,2.59-1,5.73.25,4.79,1,5.83a2.86,2.86,0,0,0,1.3.6,15.55,15.55,0,0,0,4.59.35h2.69c1.74,0,2.29.5,2.29,2.25Z"/><path class="cls-1" d="M179.3,32v4.34c0,1.79-.55,2.29-2.29,2.29h-4.09V56.62c0,1.75-.5,2.24-2.25,2.24h-5.53V38.67h-5.93V34.29c0-1.75.55-2.25,2.29-2.25Z"/><path class="cls-1" d="M200.43,44.81l-9.57,14h-4.69c-1.74,0-2.29-.49-2.29-2.24V32h5.53c1.75,0,2.25.5,2.25,2.25V46.1L201.28,32H206c1.75,0,2.25.5,2.25,2.25V58.86h-5.49c-1.79,0-2.29-.49-2.29-2.24Z"/><path class="cls-3" d="M214,58.86V25.46c0-1.74.44-2.19,2.19-2.19h6.68l9.92,22.13,9.92-22.13h6.48c1.75,0,2.25.5,2.25,2.24V58.86h-5.49c-1.74,0-2.24-.49-2.24-2.24V37.33h-.6L236.22,53c-.5,1.1-1.69,1.65-3.54,1.65s-2.94-.55-3.44-1.65l-6.88-15.65h-.6V56.62c0,1.75-.55,2.24-2.29,2.24Z"/><path class="cls-3" d="M277.54,58.86h-9.47c-4.64,0-7.78-1-9.42-3.09s-2.44-5.53-2.44-10.32c0-5.08.84-8.67,2.49-10.72s4.58-3.09,8.62-3.09c3.69,0,6.43.8,8.28,2.35s2.79,4.33,2.79,8.37V45.7c0,1.75-.5,2.25-2.29,2.25H263.53c0,3.38,1.3,4.28,5.24,4.28h6.48c1.79,0,2.29.5,2.29,2.25ZM271,43.06v-1c0-1.64-.2-2.69-.65-3.14s-1.44-.7-3-.7-2.64.3-3.09.85-.65,1.85-.7,4Z"/><path class="cls-3" d="M285.81,52.18l1.95-17.94c.2-1.75.9-2.25,2.24-2.25h13.56c1.4,0,2.05.5,2.25,2.25l2,17.94h2.79v4.39c0,1.8-.5,2.29-2.24,2.29H282.12V54.48c0-1.75.5-2.3,2.25-2.3Zm14.41,0c-.05-.1-.55-4.58-1.59-13.51h-3.69c-.95,8.68-1.5,13.16-1.55,13.51Z"/></g></g></svg>