<svg width="19" height="14" viewBox="0 0 19 14" fill="none" xmlns="http://www.w3.org/2000/svg">
<path d="M2.13326 1.01351C1.899 1.01351 1.67434 1.10843 1.5087 1.27738C1.34306 1.44633 1.25 1.67548 1.25 1.91441V12.0991C1.25 12.338 1.34306 12.5672 1.5087 12.7361C1.67434 12.9051 1.899 13 2.13326 13H17.6167C17.851 13 18.0757 12.9051 18.2413 12.7361C18.4069 12.5672 18.5 12.338 18.5 12.0991V1.9009C18.5 1.66197 18.4069 1.43282 18.2413 1.26387C18.0757 1.09492 17.851 1 17.6167 1H2.13326V1.01351ZM16.7997 2.73423L9.875 7.93243L2.95027 2.73423" fill="white"/>
<path d="M16.7997 2.73423L9.875 7.93243L2.95027 2.73423M2.13326 1.01351C1.899 1.01351 1.67434 1.10843 1.5087 1.27738C1.34306 1.44633 1.25 1.67548 1.25 1.91441V12.0991C1.25 12.338 1.34306 12.5672 1.5087 12.7361C1.67434 12.9051 1.899 13 2.13326 13H17.6167C17.851 13 18.0757 12.9051 18.2413 12.7361C18.4069 12.5672 18.5 12.338 18.5 12.0991V1.9009C18.5 1.66197 18.4069 1.43282 18.2413 1.26387C18.0757 1.09492 17.851 1 17.6167 1H2.13326V1.01351Z" stroke="#6F6F6F" stroke-linecap="round" stroke-linejoin="round"/>
</svg>
