<svg width="17" height="17" viewBox="0 0 17 17" fill="none" xmlns="http://www.w3.org/2000/svg">
<path d="M15.5228 11.0447C14.6646 10.9388 13.8124 10.7886 12.9697 10.5947C12.7639 10.5259 12.5439 10.5114 12.3309 10.5526C12.1179 10.5938 11.9192 10.6893 11.7539 10.8298C11.5391 11.0488 10.919 11.661 10.2747 12.2935C7.96596 11.1581 6.09883 9.28868 4.96568 6.97806C5.59384 6.3334 6.18148 5.71711 6.42058 5.50223C6.56108 5.33686 6.65654 5.13801 6.69772 4.92492C6.7389 4.71183 6.7244 4.49172 6.65564 4.28588C6.4616 3.44143 6.31145 2.58749 6.20579 1.72749C6.19447 1.61797 6.16098 1.51191 6.10736 1.41577C6.05373 1.31962 5.9811 1.23541 5.89389 1.16827C5.80667 1.10112 5.70671 1.05244 5.60008 1.02521C5.49345 0.997969 5.3824 0.99274 5.27368 1.00984H1.82082C1.6783 1.02271 1.54488 1.08548 1.44406 1.18708C1.34324 1.28869 1.28148 1.42262 1.26966 1.56531C1.04676 4.68322 2.78535 8.02007 3.13793 8.66068V8.68501L3.18657 8.77826C4.4487 10.9683 6.266 12.7864 8.45502 14.0491L8.63333 14.1505C9.44386 14.5803 12.6657 16.2021 15.6768 15.9791C15.8209 15.9691 15.9567 15.9081 16.0599 15.807C16.1631 15.706 16.227 15.5715 16.2402 15.4276V11.9773C16.2573 11.8685 16.252 11.7574 16.2248 11.6507C16.1976 11.544 16.1489 11.444 16.0818 11.3568C16.0147 11.2695 15.9305 11.1969 15.8344 11.1432C15.7383 11.0896 15.6323 11.0561 15.5228 11.0447Z" fill="white" stroke="#6F6F6F" stroke-linecap="round" stroke-linejoin="round"/>
</svg>
